<?xml version="1.0" encoding="utf-8"?>
<!-- Generator: Adobe Illustrator 16.0.0, SVG Export Plug-In . SVG Version: 6.00 Build 0)  -->
<!DOCTYPE svg PUBLIC "-//W3C//DTD SVG 1.1//EN" "http://www.w3.org/Graphics/SVG/1.1/DTD/svg11.dtd">
<svg version="1.1" id="Layer_1" xmlns="http://www.w3.org/2000/svg" xmlns:xlink="http://www.w3.org/1999/xlink" x="0px" y="0px"
	 width="128px" height="128px" viewBox="0 0 128 128" enable-background="new 0 0 128 128" xml:space="preserve">
<g>
	<path fill-rule="evenodd" clip-rule="evenodd" fill="#3300FF" d="M62.714,66.063c0.153,0.162,0.294,0.311,0.435,0.46
		c0.799,0.853,1.599,1.704,2.4,2.555c0.045,0.047,0.063,0.094,0.063,0.159c-0.001,1.68,0,3.361-0.002,5.041
		c0,0.374,0.123,0.689,0.396,0.944c0.531,0.495,1.414,0.369,1.792-0.256c0.119-0.196,0.182-0.407,0.181-0.639
		c0-2.065,0.001-4.132,0-6.198c0-0.329-0.12-0.608-0.342-0.847c-0.69-0.743-1.382-1.488-2.072-2.232
		c-0.265-0.284-0.529-0.569-0.796-0.852c-0.037-0.039-0.042-0.073-0.032-0.121c0.198-0.949,0.395-1.898,0.593-2.847
		c0.004-0.022,0.012-0.044,0.022-0.082c0.052,0.107,0.101,0.203,0.148,0.299c0.245,0.501,0.495,1,0.734,1.505
		c0.151,0.32,0.41,0.488,0.737,0.556c0.78,0.161,1.562,0.312,2.344,0.466c0.361,0.071,0.723,0.144,1.085,0.208
		c0.399,0.071,0.823-0.157,1.012-0.519c0.131-0.25,0.114-0.502,0.036-0.755c-0.08-0.26-0.213-0.49-0.472-0.603
		c-0.141-0.062-0.292-0.103-0.442-0.133c-0.881-0.177-1.763-0.348-2.645-0.52c-0.062-0.012-0.104-0.037-0.135-0.099
		c-0.295-0.609-0.594-1.215-0.891-1.823c-0.288-0.587-0.581-1.171-0.861-1.761c-0.151-0.315-0.315-0.618-0.549-0.878
		c-0.406-0.456-0.904-0.747-1.507-0.837c-0.389-0.058-0.77,0.001-1.12,0.176c-0.362,0.18-0.708,0.39-1.06,0.591
		c-0.853,0.49-1.706,0.98-2.557,1.474c-0.256,0.148-0.503,0.308-0.641,0.592c-0.099,0.206-0.209,0.407-0.314,0.61
		c-0.483,0.933-0.965,1.866-1.451,2.798c-0.207,0.397-0.157,0.832,0.14,1.172c0.262,0.301,0.705,0.402,1.097,0.246
		c0.234-0.094,0.403-0.263,0.52-0.488c0.539-1.042,1.078-2.085,1.619-3.127c0.024-0.045,0.065-0.089,0.109-0.116
		c0.289-0.173,0.581-0.341,0.885-0.519c-0.014,0.074-0.023,0.134-0.037,0.194c-0.267,1.23-0.539,2.458-0.799,3.69
		c-0.086,0.406-0.143,0.819-0.212,1.229c-0.134,0.795-0.268,1.59-0.401,2.385c-0.126,0.744-0.251,1.489-0.379,2.233
		c-0.006,0.038-0.024,0.078-0.048,0.106c-0.735,0.881-1.471,1.76-2.207,2.64c-0.317,0.379-0.644,0.75-0.945,1.142
		c-0.294,0.382-0.331,0.814-0.123,1.246c0.21,0.438,0.574,0.667,1.059,0.674c0.399,0.005,0.709-0.182,0.961-0.485
		c0.778-0.936,1.559-1.869,2.339-2.803c0.442-0.529,0.874-1.068,1.331-1.585c0.276-0.312,0.392-0.671,0.456-1.069
		c0.155-0.962,0.325-1.923,0.489-2.883C62.677,66.278,62.695,66.18,62.714,66.063z"/>
	<path fill-rule="evenodd" clip-rule="evenodd" fill="#3300FF" d="M66.485,53.718c-0.01-1.091-0.858-1.973-1.949-1.972
		c-1.083,0.001-1.933,0.875-1.941,1.971c-0.008,1.079,0.878,1.971,1.945,1.97C65.609,55.686,66.486,54.797,66.485,53.718z"/>
</g>
</svg>
